<svg version="1.1" viewBox="0.0 0.0 480.0 480.0" fill="none" stroke="none" stroke-linecap="square" stroke-miterlimit="10" xmlns:xlink="http://www.w3.org/1999/xlink" xmlns="http://www.w3.org/2000/svg"><clipPath id="g390c7c94958_0_21.0"><path d="m0 0l480.0 0l0 480.0l-480.0 0l0 -480.0z" clip-rule="nonzero"/></clipPath><g clip-path="url(#g390c7c94958_0_21.0)"><path fill="#ffffff" d="m0 0l480.0 0l0 480.0l-480.0 0z" fill-rule="evenodd"/><path fill="#000000" fill-opacity="0.0" d="m17.023623 240.0l0 0c0 -120.72858 99.829926 -218.59842 222.97638 -218.59842l0 0c59.137024 0 115.85193 23.03084 157.66812 64.026c41.816162 40.995155 65.30826 96.59652 65.30826 154.57242l0 0c0 120.72858 -99.829926 218.59842 -222.97638 218.59842l0 0c-123.146454 0 -222.97638 -97.86984 -222.97638 -218.59842z" fill-rule="evenodd"/><path stroke="#980000" stroke-width="16.0" stroke-linejoin="round" stroke-linecap="butt" d="m17.023623 240.0l0 0c0 -120.72858 99.829926 -218.59842 222.97638 -218.59842l0 0c59.137024 0 115.85193 23.03084 157.66812 64.026c41.816162 40.995155 65.30826 96.59652 65.30826 154.57242l0 0c0 120.72858 -99.829926 218.59842 -222.97638 218.59842l0 0c-123.146454 0 -222.97638 -97.86984 -222.97638 -218.59842z" fill-rule="evenodd"/><path fill="#4a86e8" d="m344.7991 280.80173l-128.01576 0l0 40.795288l-81.590546 -81.59056l81.590546 -81.590546l0 40.795273l128.01576 0z" fill-rule="evenodd"/><path fill="#980000" d="m86.77571 91.3758l27.433067 -23.842514l279.02362 321.10236l-27.433075 23.84253z" fill-rule="evenodd"/><path fill="#980000" d="m399.40686 82.643036l23.370087 27.842522l-337.82678 283.24408l-23.370079 -27.842499z" fill-rule="evenodd"/></g></svg>